<svg xmlns="http://www.w3.org/2000/svg" viewBox="0 0 58 58" xmlns:bx="https://boxy-svg.com">
  <g transform="">
    <rect width="58" height="58" style="fill: rgb(255, 255, 255); transform-origin: 0px 0px;"></rect>
    <path fill="#000" d="M 41.763 24.821 L 50.453 39.89 C 52.579 43.572 49.921 48.174 45.67 48.174 C 45.67 48.174 45.669 48.174 45.669 48.174 L 28.277 48.174 C 24.026 48.175 21.368 43.574 23.492 39.891 C 23.493 39.891 23.493 39.89 23.493 39.89 L 32.184 24.821 C 34.264 21.113 39.578 21.048 41.749 24.703 C 41.771 24.743 41.794 24.781 41.816 24.821 M 17.029 45.412 L 32.933 17.95 C 35.209 14.349 32.735 9.635 28.479 9.464 C 26.35 9.378 24.361 10.522 23.365 12.406 L 7.461 39.868 C 5.926 42.51 6.827 45.896 9.473 47.424 C 10.309 47.92 11.263 48.179 12.234 48.174 C 14.211 48.176 16.039 47.123 17.029 45.412" style=""></path>
  </g>
</svg>